<svg width="318" height="318" viewBox="0 0 318 318" fill="none" xmlns="http://www.w3.org/2000/svg">
<rect width="318" height="318" fill="url(#paint0_linear_534_5434)"/>
<path fill-rule="evenodd" clip-rule="evenodd" d="M99.2367 104.29V97.906H122.834C123.084 95.0894 123.272 92.2102 123.272 89.2057V85.5128H129.907V87.7035C129.907 91.2713 129.719 94.6513 129.343 97.906H154.881V104.29H130.658C135.165 118.874 143.74 130.078 156.383 137.902L152.252 143.285C140.36 135.524 131.91 124.758 126.902 111.113C125.338 116.558 123.209 121.441 120.518 125.822C123.46 128.639 126.777 132.332 130.533 136.838L125.838 141.533C123.147 137.777 120.205 134.209 116.95 130.767C112.757 135.899 107.687 140.03 101.74 143.285L97.5467 137.715C110.691 131.08 118.828 119.938 121.895 104.29H99.2367ZM167.9 122.692V116.558H211.339V122.692H192.874V135.023H216.597V141.282H162.642V135.023H186.24V122.692H167.9ZM192.561 104.666L195.941 99.5334C202.451 102.413 208.335 105.918 213.655 110.049L209.962 115.62C204.329 110.988 198.508 107.295 192.561 104.666ZM164.896 109.486C171.781 106.982 177.477 103.79 181.858 99.909L185.927 104.541C180.919 108.922 174.848 112.553 167.712 115.432L164.896 109.486ZM183.673 85.8884L190.809 84.7617C191.56 86.5769 192.248 88.5798 193 90.8331H216.784V104.416H210.212V96.842H169.089V104.353H162.517V90.8331H186.114C185.363 89.0806 184.55 87.3906 183.673 85.8884ZM123.022 189.223V175.203H148.747V189.223H123.022ZM128.968 184.216H142.738V180.21H128.968V184.216ZM137.23 205.247V191.79H153.629V205.247H137.23ZM142.738 200.615H148.058V196.484H142.738V200.615ZM132.661 209.691V206.186H138.983V209.691H154.318V215.7H144.929C147.558 218.829 151.376 221.646 156.508 224.15L152.19 229.533C146.306 225.339 141.987 220.707 139.358 215.7H138.983V231.348H132.661V215.7H132.348C129.093 221.333 124.148 225.965 117.514 229.595L114.008 223.962C119.454 221.709 123.648 218.955 126.589 215.7H117.889V209.691H132.661ZM118.202 205.247V191.79H134.476V205.247H118.202ZM123.773 200.615H128.968V196.484H123.773V200.615ZM99.9878 177.832H115.824V219.768H106.059V223.524H99.9878V177.832ZM106.059 183.778V213.822H109.877V183.778H106.059ZM169.34 202.493H210.15V231.285H203.578V228.907H175.912V231.285H169.34V202.493ZM175.912 218.516V223.273H203.578V218.516H175.912ZM175.912 208.126V213.008H203.578V208.126H175.912ZM164.708 184.779V178.771H186.365C185.551 176.955 184.675 175.265 183.736 173.763L190.746 172.637C191.56 174.514 192.374 176.517 193.125 178.771H214.594V184.779H205.142C204.329 187.596 203.265 190.287 202.013 192.854H217.473V198.925H161.766V192.854H176.976C176.1 189.975 175.223 187.283 174.222 184.779H164.708ZM198.633 184.779H181.044C181.858 187.283 182.609 189.975 183.36 192.854H195.566C196.88 190.287 197.882 187.596 198.633 184.779ZM89.7164 152.576C90.4662 152.051 91.4109 151.796 92.5656 151.796C93.8253 151.796 94.815 152.051 95.5198 152.576C96.2696 153.131 96.7045 154 96.8095 155.17H95.0699C94.92 154.51 94.635 154.03 94.2452 153.745C93.8553 153.446 93.2554 153.311 92.4756 153.311C91.8008 153.311 91.2909 153.401 90.931 153.596C90.4812 153.82 90.2712 154.195 90.2712 154.705C90.2712 155.155 90.5111 155.53 91.021 155.8C91.246 155.92 91.8608 156.145 92.8505 156.46C94.3051 156.91 95.2349 157.27 95.6548 157.509C96.5845 158.064 97.0494 158.829 97.0494 159.819C97.0494 160.779 96.6745 161.543 95.9247 162.098C95.1749 162.638 94.1102 162.923 92.7456 162.923C91.4259 162.923 90.3912 162.668 89.6564 162.158C88.7566 161.528 88.2617 160.539 88.1868 159.174H89.9263C90.0463 159.984 90.3312 160.569 90.7961 160.914C91.216 161.213 91.8608 161.378 92.7456 161.378C93.5253 161.378 94.1552 161.243 94.6051 160.989C95.0549 160.719 95.2949 160.374 95.2949 159.924C95.2949 159.354 94.95 158.904 94.2901 158.574C94.0802 158.469 93.3904 158.229 92.2057 157.869C90.886 157.449 90.0613 157.15 89.7464 156.97C88.9216 156.475 88.5167 155.755 88.5167 154.81C88.5167 153.865 88.9066 153.116 89.7164 152.576ZM103.548 162.713V152.006H107.987C110.566 152.006 111.871 153.101 111.871 155.29C111.871 157.494 110.566 158.604 107.957 158.604H105.303V162.713H103.548ZM107.852 153.506H105.303V157.105H107.852C108.632 157.105 109.202 156.955 109.562 156.685C109.922 156.4 110.102 155.935 110.102 155.29C110.102 154.645 109.907 154.195 109.547 153.925C109.187 153.641 108.617 153.506 107.852 153.506ZM117.319 162.713L121.413 152.006H123.407L127.501 162.713H125.627L124.652 160.029H120.168L119.193 162.713H117.319ZM122.387 153.895L120.693 158.589H124.127L122.447 153.895H122.387ZM134.275 153.491C135.175 152.351 136.48 151.796 138.189 151.796C139.449 151.796 140.498 152.126 141.308 152.786C142.088 153.416 142.553 154.285 142.718 155.365H141.008C140.828 154.66 140.498 154.15 140.004 153.82C139.524 153.491 138.909 153.341 138.159 153.341C137.034 153.341 136.195 153.715 135.625 154.495C135.1 155.185 134.845 156.145 134.845 157.375C134.845 158.634 135.1 159.609 135.61 160.284C136.165 161.004 137.034 161.378 138.204 161.378C138.969 161.378 139.599 161.183 140.079 160.824C140.588 160.419 140.948 159.804 141.158 158.994H142.868C142.628 160.254 142.073 161.228 141.188 161.933C140.363 162.593 139.374 162.923 138.219 162.923C136.435 162.923 135.1 162.353 134.23 161.243C133.465 160.284 133.09 158.994 133.09 157.375C133.09 155.785 133.48 154.48 134.275 153.491ZM149.517 162.713V152.006H157.24V153.506H151.272V156.475H156.881V157.974H151.272V161.213H157.495V162.713H149.517ZM164.133 162.713V152.006H165.887L171.181 159.729H171.241V152.006H173.01V162.713H171.301L165.947 154.885H165.887V162.713H164.133ZM180.995 153.401C181.924 152.321 183.214 151.796 184.864 151.796C186.498 151.796 187.788 152.321 188.733 153.386C189.632 154.39 190.082 155.725 190.082 157.375C190.082 159.024 189.632 160.344 188.733 161.348C187.788 162.398 186.498 162.923 184.864 162.923C183.214 162.923 181.924 162.383 180.995 161.333C180.095 160.314 179.66 158.994 179.66 157.375C179.66 155.74 180.095 154.42 180.995 153.401ZM187.428 154.405C186.828 153.685 185.973 153.341 184.864 153.341C183.754 153.341 182.899 153.715 182.284 154.465C181.699 155.185 181.415 156.145 181.415 157.375C181.415 158.589 181.699 159.549 182.284 160.269C182.884 161.004 183.754 161.378 184.864 161.378C185.973 161.378 186.828 161.019 187.428 160.314C188.013 159.609 188.313 158.634 188.313 157.375C188.313 156.115 188.013 155.125 187.428 154.405ZM196.731 162.713V152.006H198.486V162.713H196.731ZM206.507 152.576C207.256 152.051 208.201 151.796 209.356 151.796C210.615 151.796 211.605 152.051 212.31 152.576C213.06 153.131 213.495 154 213.6 155.17H211.86C211.71 154.51 211.425 154.03 211.035 153.745C210.645 153.446 210.046 153.311 209.266 153.311C208.591 153.311 208.081 153.401 207.721 153.596C207.271 153.82 207.061 154.195 207.061 154.705C207.061 155.155 207.301 155.53 207.811 155.8C208.036 155.92 208.651 156.145 209.641 156.46C211.095 156.91 212.025 157.27 212.445 157.509C213.375 158.064 213.84 158.829 213.84 159.819C213.84 160.779 213.465 161.543 212.715 162.098C211.965 162.638 210.9 162.923 209.536 162.923C208.216 162.923 207.181 162.668 206.447 162.158C205.547 161.528 205.052 160.539 204.977 159.174H206.716C206.836 159.984 207.121 160.569 207.586 160.914C208.006 161.213 208.651 161.378 209.536 161.378C210.315 161.378 210.945 161.243 211.395 160.989C211.845 160.719 212.085 160.374 212.085 159.924C212.085 159.354 211.74 158.904 211.08 158.574C210.87 158.469 210.181 158.229 208.996 157.869C207.676 157.449 206.851 157.15 206.536 156.97C205.712 156.475 205.307 155.755 205.307 154.81C205.307 153.865 205.697 153.116 206.507 152.576ZM220.338 162.713V152.006H228.061V153.506H222.093V156.475H227.701V157.974H222.093V161.213H228.316V162.713H220.338Z" fill="white"/>
<defs>
<linearGradient id="paint0_linear_534_5434" x1="0" y1="159" x2="318" y2="159" gradientUnits="userSpaceOnUse">
<stop stop-color="#A1C4FD"/>
<stop offset="1" stop-color="#C2E9FB"/>
</linearGradient>
</defs>
</svg>
